<?xml version="1.0" standalone="no"?><!DOCTYPE svg PUBLIC "-//W3C//DTD SVG 1.1//EN" "http://www.w3.org/Graphics/SVG/1.1/DTD/svg11.dtd"><svg t="1561716726132" class="icon" viewBox="0 0 1024 1024" version="1.1" xmlns="http://www.w3.org/2000/svg" p-id="6958" xmlns:xlink="http://www.w3.org/1999/xlink" width="128" height="128"><defs><style type="text/css"></style></defs><path d="M859.6 666.5L524.4 859.3c-6.8 4-15.3 4-22.1 0L167 666.5c-20.6-13.1-47.9-7-61.1 13.6s-7 47.9 13.6 61.1c1 0.7 2.1 1.3 3.2 1.9l333.5 192.4 34.5 19.5c13.7 7.9 30.5 7.9 44.2 0l37.2-19.9 333.5-192.4c21.6-11.3 30-38 18.7-59.7-11.3-21.6-38-30-59.7-18.7-1.1 0.6-2.2 1.2-3.2 1.9l-1.8 0.3z" fill="" p-id="6959"></path><path d="M859.6 445.3L524.4 638.2c-6.8 4-15.3 4-22.1 0L167 445.3c-20.6-13.1-47.9-7-61.1 13.6-13.1 20.6-7 47.9 13.6 61.1 1 0.7 2.1 1.3 3.2 1.9l333.5 192.4 34.1 19.9c13.7 7.9 30.5 7.9 44.2 0l36.3-20.3 333.5-192.4c21.6-11.3 30-38 18.7-59.7-11.3-21.6-38-30-59.7-18.7-1.1 0.6-2.2 1.2-3.2 1.9l-0.5 0.3z" fill="" p-id="6960"></path><path d="M934.8 260.9l-375.9-188c-30-12.9-63.9-12.9-93.8 0l-375.5 188c-26.1 12.8-26.1 34.1 0 46.9l375.5 187.5c29.9 12.9 63.8 12.9 93.8 0l375.5-188c26-12.3 26-33.6 0.4-46.4z" fill="" p-id="6961"></path></svg>