<?xml version="1.0" standalone="no"?><!DOCTYPE svg PUBLIC "-//W3C//DTD SVG 1.1//EN" "http://www.w3.org/Graphics/SVG/1.1/DTD/svg11.dtd"><svg t="1561716877699" class="icon" viewBox="0 0 1024 1024" version="1.1" xmlns="http://www.w3.org/2000/svg" p-id="8426" xmlns:xlink="http://www.w3.org/1999/xlink" width="128" height="128"><defs><style type="text/css"></style></defs><path d="M256 880a112 112 0 0 1-112-112V256a112 112 0 0 1 112-112h512a112 112 0 0 1 112 112v512a112 112 0 0 1-112 112z m376-131.2l14.4 3.2a51.2 51.2 0 0 0 32-12.8 41.6 41.6 0 0 0 11.2-32l-3.2-128 78.4-99.2a48 48 0 0 0 6.4-41.6 44.8 44.8 0 0 0-28.8-27.2l-123.2-36.8-70.4-104a44.8 44.8 0 0 0-73.6 0l-70.4 104-123.2 36.8a44.8 44.8 0 0 0-28.8 27.2 48 48 0 0 0 6.4 41.6l78.4 99.2-3.2 128a41.6 41.6 0 0 0 11.2 32 51.2 51.2 0 0 0 32 12.8l14.4-3.2 120-41.6z" p-id="8427"></path><path d="M768 160a96 96 0 0 1 96 96v512a96 96 0 0 1-96 96H256a96 96 0 0 1-96-96V256a96 96 0 0 1 96-96h512M393.6 361.6l-115.2 33.6a60.8 60.8 0 0 0-40 38.4 62.4 62.4 0 0 0 8 56l75.2 96-3.2 121.6a56 56 0 0 0 16 43.2 62.4 62.4 0 0 0 43.2 17.6l20.8-3.2 113.6-41.6 113.6 41.6 20.8 3.2a62.4 62.4 0 0 0 43.2-17.6 56 56 0 0 0 16-43.2l-3.2-121.6 75.2-96a62.4 62.4 0 0 0 8-56 60.8 60.8 0 0 0-40-38.4l-115.2-33.6-68.8-100.8a60.8 60.8 0 0 0-99.2 0l-68.8 100.8M768 128H256a128 128 0 0 0-128 128v512a128 128 0 0 0 128 128h512a128 128 0 0 0 128-128V256a128 128 0 0 0-128-128zM377.6 736a27.2 27.2 0 0 1-27.2-28.8l3.2-132.8-81.6-105.6a27.2 27.2 0 0 1 14.4-43.2l128-36.8 75.2-110.4a27.2 27.2 0 0 1 44.8 0l75.2 110.4 128 36.8a27.2 27.2 0 0 1 14.4 43.2l-81.6 105.6 3.2 132.8a27.2 27.2 0 0 1-27.2 28.8h-9.6L512 689.6l-124.8 44.8z" p-id="8428"></path></svg>