<?xml version="1.0" standalone="no"?><!DOCTYPE svg PUBLIC "-//W3C//DTD SVG 1.1//EN" "http://www.w3.org/Graphics/SVG/1.1/DTD/svg11.dtd"><svg t="1561717185021" class="icon" viewBox="0 0 1024 1024" version="1.1" xmlns="http://www.w3.org/2000/svg" p-id="28260" xmlns:xlink="http://www.w3.org/1999/xlink" width="128" height="128"><defs><style type="text/css"></style></defs><path d="M859.71126 575.904449c-9.143241 50.008974-29.014824 96.17748-56.843636 136.430252l45.288462 84.104513-51.715849 51.716872-84.225263-45.351907c-40.222073 27.694759-86.322018 47.483454-136.225591 56.620555l-27.41949 91.40171-73.138764 0-27.41949-91.40171c-49.915853-9.140171-96.076172-28.871561-136.309502-56.577576l-84.141352 45.307905-51.716872-51.716872 45.226041-83.98888c-27.815509-40.216957-47.328935-86.528726-56.521295-136.469138l-91.376127-27.412326L73.172533 475.43113l91.115184-27.334555c9.144264-50.007951 29.015847-96.17748 56.845683-136.430252l-45.289486-84.10656 51.716872-51.715849 84.225263 45.351907c40.22105-27.695782 86.322018-47.482431 136.225591-56.620555l27.41949-91.402733 73.138764 0 27.41949 91.402733c49.913806 9.141194 96.076172 28.872584 136.309502 56.57553l84.141352-45.306882 51.715849 51.715849-45.226041 83.989903c27.816532 40.216957 47.328935 86.526679 56.522318 136.468115l91.376127 27.412326 0 73.137741L859.71126 575.904449zM512 280.397155c-127.911228 0-231.603869 103.691617-231.603869 231.601822s103.69264 231.604892 231.603869 231.604892c127.910205 0 231.601822-103.693664 231.601822-231.604892S639.910205 280.397155 512 280.397155zM512 658.275481c-80.785931 0-146.277528-65.490573-146.277528-146.275481s65.491597-146.275481 146.277528-146.275481c80.784908 0 146.275481 65.490573 146.275481 146.275481S592.784908 658.275481 512 658.275481z" p-id="28261"></path></svg>